<svg width="1000" height="1000" viewBox="0 0 1000 1000" fill="none" xmlns="http://www.w3.org/2000/svg">
<path d="M666.665 708.333V791.667H83.332V708.333C83.332 708.333 83.332 541.667 374.999 541.667C666.665 541.667 666.665 708.333 666.665 708.333ZM520.832 312.5C520.832 283.657 512.279 255.462 496.255 231.479C480.23 207.497 457.454 188.805 430.807 177.768C404.159 166.73 374.837 163.842 346.548 169.469C318.259 175.096 292.274 188.985 271.879 209.38C251.484 229.776 237.595 255.761 231.968 284.049C226.34 312.338 229.228 341.661 240.266 368.308C251.304 394.956 269.996 417.732 293.978 433.756C317.96 449.78 346.156 458.333 374.999 458.333C413.676 458.333 450.769 442.969 478.118 415.62C505.467 388.271 520.832 351.177 520.832 312.5ZM664.165 541.667C689.78 561.49 710.739 586.685 725.568 615.48C740.398 644.274 748.737 675.969 749.999 708.333V791.667H916.665V708.333C916.665 708.333 916.665 557.083 664.165 541.667ZM624.999 166.667C596.319 166.507 568.27 175.082 544.582 191.25C569.892 226.614 583.501 269.012 583.501 312.5C583.501 355.988 569.892 398.386 544.582 433.75C568.27 449.919 596.319 458.493 624.999 458.333C663.676 458.333 700.769 442.969 728.118 415.62C755.467 388.271 770.832 351.177 770.832 312.5C770.832 273.823 755.467 236.729 728.118 209.38C700.769 182.031 663.676 166.667 624.999 166.667Z" fill="#330404"/>
</svg>
