<svg width="1000" height="1000" viewBox="0 0 1000 1000" fill="none" xmlns="http://www.w3.org/2000/svg">
<path d="M125 377.375V687.5C125 720.652 138.17 752.446 161.612 775.888C185.054 799.33 216.848 812.5 250 812.5H750C783.152 812.5 814.946 799.33 838.388 775.888C861.83 752.446 875 720.652 875 687.5V312.5C875 279.348 861.83 247.554 838.388 224.112C814.946 200.67 783.152 187.5 750 187.5H250C216.848 187.5 185.054 200.67 161.612 224.112C138.17 247.554 125 279.348 125 312.5V377.375ZM250 250H750C766.576 250 782.473 256.585 794.194 268.306C805.915 280.027 812.5 295.924 812.5 312.5V358.75L500 527L187.5 358.75V312.5C187.5 295.924 194.085 280.027 205.806 268.306C217.527 256.585 233.424 250 250 250ZM187.5 429.75L485.188 590C489.74 592.451 494.83 593.734 500 593.734C505.17 593.734 510.26 592.451 514.813 590L812.5 429.75V687.5C812.5 704.076 805.915 719.973 794.194 731.694C782.473 743.415 766.576 750 750 750H250C233.424 750 217.527 743.415 205.806 731.694C194.085 719.973 187.5 704.076 187.5 687.5V429.75Z" fill="#330404"/>
</svg>
