<svg width="1000" height="1000" viewBox="0 0 1000 1000" fill="none" xmlns="http://www.w3.org/2000/svg">
<path d="M625 916.667L607.666 942.667C612.373 945.804 617.842 947.605 623.491 947.878C629.141 948.151 634.758 946.886 639.745 944.217C644.732 941.548 648.901 937.576 651.807 932.724C654.714 927.872 656.249 922.323 656.25 916.667H625ZM500 833.333L517.333 807.333C512.2 803.912 506.169 802.086 500 802.086C493.831 802.086 487.8 803.912 482.666 807.333L500 833.333ZM375 916.667H343.75C343.75 922.323 345.286 927.872 348.192 932.724C351.099 937.576 355.268 941.548 360.255 944.217C365.241 946.886 370.859 948.151 376.508 947.878C382.158 947.605 387.627 945.804 392.333 942.667L375 916.667ZM642.333 890.667L517.333 807.333L482.666 859.333L607.666 942.667L642.333 890.667ZM482.666 807.333L357.666 890.667L392.333 942.667L517.333 859.333L482.666 807.333ZM539.666 136.5L541.416 138.583L589.041 98.0833L587.25 96L539.666 136.5ZM637.875 178.542L640.583 178.292L635.583 116L632.875 116.25L637.875 178.542ZM696.708 234.375L696.458 237.125L758.75 242.125L759 239.417L696.708 234.375ZM736.416 333.542L738.5 335.333L779 287.75L776.916 285.958L736.416 333.542ZM738.5 414.667L736.416 416.417L776.916 464.042L779 462.25L738.5 414.667ZM696.458 512.875L696.708 515.583L759 510.583L758.75 507.875L696.458 512.875ZM640.625 571.708L637.875 571.458L632.875 633.75L635.583 634L640.625 571.708ZM541.458 611.417L539.666 613.5L587.25 654L589.041 651.917L541.458 611.417ZM460.333 613.5L458.541 611.417L410.958 651.917L412.75 654L460.333 613.5ZM362.125 571.458L359.416 571.667L364.416 634L367.125 633.792L362.125 571.458ZM303.291 515.625L303.541 512.875L241.25 507.875L241 510.583L303.291 515.625ZM263.583 416.458L261.5 414.667L221 462.25L223.083 464.042L263.583 416.458ZM261.5 335.333L263.583 333.542L223.083 285.958L221 287.75L261.5 335.333ZM303.541 237.125L303.291 234.417L241 239.417L241.25 242.125L303.541 237.125ZM359.375 178.292L362.125 178.542L367.125 116.25L364.416 116L359.375 178.292ZM458.541 138.583L460.333 136.5L412.75 96L410.958 98.0833L458.541 138.583ZM362.125 178.542C380.222 179.993 398.405 177.123 415.175 170.168C431.946 163.214 446.824 152.374 458.583 138.542L410.958 98.0833C405.613 104.366 398.851 109.29 391.23 112.448C383.61 115.607 375.348 116.91 367.125 116.25L362.125 178.542ZM303.291 234.417C302.694 226.898 303.736 219.298 306.346 212.221C308.956 205.145 313.073 198.72 318.41 193.391C323.747 188.061 330.178 183.955 337.258 181.355C344.338 178.755 351.899 177.724 359.416 178.333L364.416 116.042C347.871 114.708 331.233 116.986 315.654 122.717C300.075 128.447 285.928 137.495 274.19 149.232C262.453 160.97 253.405 175.117 247.675 190.696C241.944 206.275 239.666 222.913 241 239.458L303.291 234.417ZM263.583 333.542C277.402 321.782 288.23 306.909 295.177 290.147C302.124 273.385 304.991 255.212 303.541 237.125L241.25 242.125C242.583 258.792 235.833 275.125 223.083 285.958L263.583 333.542ZM261.5 414.667C255.754 409.777 251.138 403.698 247.973 396.849C244.808 390 243.169 382.545 243.169 375C243.169 367.455 244.808 360 247.973 353.151C251.138 346.302 255.754 340.223 261.5 335.333L221 287.75C208.364 298.507 198.215 311.88 191.255 326.945C184.296 342.009 180.691 358.406 180.691 375C180.691 391.594 184.296 407.991 191.255 423.055C198.215 438.12 208.364 451.493 221 462.25L261.5 414.667ZM303.541 512.875C304.993 494.778 302.123 476.595 295.168 459.824C288.214 443.054 277.374 428.176 263.541 416.417L223.083 464.042C235.833 474.875 242.583 491.208 241.25 507.875L303.541 512.875ZM359.375 571.708C351.853 572.313 344.289 571.275 337.208 568.668C330.126 566.06 323.696 561.945 318.362 556.607C313.028 551.269 308.918 544.836 306.316 537.752C303.713 530.669 302.682 523.105 303.291 515.583L241 510.583C239.666 527.129 241.944 543.767 247.675 559.346C253.405 574.924 262.453 589.072 274.19 600.81C285.928 612.547 300.075 621.594 315.654 627.325C331.233 633.056 347.871 635.333 364.416 634L359.375 571.708ZM539.666 613.5C534.777 619.246 528.697 623.861 521.848 627.027C514.999 630.192 507.545 631.831 500 631.831C492.455 631.831 485 630.192 478.151 627.027C471.302 623.861 465.223 619.246 460.333 613.5L412.75 654C423.507 666.636 436.88 676.785 451.944 683.744C467.009 690.704 483.405 694.308 500 694.308C516.594 694.308 532.991 690.704 548.055 683.744C563.12 676.785 576.493 666.636 587.25 654L539.666 613.5ZM696.708 515.583C697.312 523.105 696.275 530.669 693.667 537.75C691.06 544.832 686.945 551.262 681.607 556.596C676.269 561.93 669.835 566.04 662.752 568.642C655.669 571.245 648.105 572.276 640.583 571.667L635.583 634C652.129 635.333 668.767 633.056 684.345 627.325C699.924 621.594 714.072 612.547 725.809 600.81C737.547 589.072 746.594 574.924 752.325 559.346C758.055 543.767 760.333 527.129 759 510.583L696.708 515.583ZM736.416 416.417C722.592 428.18 711.76 443.06 704.812 459.83C697.865 476.6 695.002 494.781 696.458 512.875L758.75 507.875C757.416 491.208 764.166 474.875 776.916 464.042L736.416 416.417ZM738.5 335.333C744.246 340.223 748.861 346.302 752.026 353.151C755.191 360 756.831 367.455 756.831 375C756.831 382.545 755.191 390 752.026 396.849C748.861 403.698 744.246 409.777 738.5 414.667L779 462.25C791.636 451.493 801.784 438.12 808.744 423.055C815.704 407.991 819.308 391.594 819.308 375C819.308 358.406 815.704 342.009 808.744 326.945C801.784 311.88 791.636 298.507 779 287.75L738.5 335.333ZM696.458 237.125C695.007 255.222 697.877 273.405 704.831 290.176C711.786 306.946 722.626 321.824 736.458 333.583L776.916 285.958C770.633 280.613 765.71 273.851 762.552 266.231C759.393 258.61 758.09 250.348 758.75 242.125L696.458 237.125ZM640.625 178.292C648.147 177.687 655.71 178.725 662.792 181.332C669.873 183.94 676.303 188.055 681.637 193.393C686.971 198.731 691.082 205.164 693.684 212.248C696.286 219.331 697.318 226.853 696.708 234.375L759 239.417C760.333 222.871 758.055 206.233 752.325 190.654C746.594 175.076 737.547 160.928 725.809 149.19C714.072 137.453 699.924 128.406 684.345 122.675C668.767 116.944 652.129 114.667 635.583 116L640.625 178.292ZM541.416 138.583C553.176 152.402 568.09 163.231 584.853 170.177C601.615 177.124 619.788 179.991 637.875 178.542L632.875 116.25C624.652 116.91 616.39 115.607 608.769 112.448C601.148 109.29 594.387 104.366 589.041 98.0833L541.416 138.583ZM587.291 96C576.535 83.3498 563.157 73.1886 548.084 66.2202C533.012 59.2519 516.605 55.6427 500 55.6427C483.394 55.6427 466.987 59.2519 451.915 66.2202C436.843 73.1886 423.465 83.3498 412.708 96L460.333 136.5C465.223 130.754 471.302 126.138 478.151 122.973C485 119.808 492.455 118.169 500 118.169C507.545 118.169 514.999 119.808 521.848 122.973C528.697 126.138 534.777 130.754 539.666 136.5L587.291 96ZM458.541 611.417C448.341 599.431 435.781 589.675 421.645 582.757C407.508 575.839 392.098 571.908 376.375 571.208L373.625 633.667C387.958 634.292 401.541 640.833 410.958 651.917L458.541 611.417ZM376.375 571.208C371.624 570.997 366.865 571.081 362.125 571.458L367.125 633.75C369.287 633.576 371.459 633.549 373.625 633.667L376.375 571.208ZM406.25 916.667V602.417H343.75V916.667H406.25ZM637.916 571.458C633.162 571.079 628.389 570.995 623.625 571.208L626.375 633.667C628.541 633.549 630.712 633.576 632.875 633.75L637.916 571.458ZM623.625 571.208C607.895 571.902 592.476 575.831 578.332 582.749C564.188 589.667 551.663 599.426 541.458 611.417L589.041 651.917C593.678 646.475 599.386 642.047 605.809 638.907C612.232 635.767 619.232 633.983 626.375 633.667L623.625 571.208ZM593.75 602.458V916.667H656.25V602.417L593.75 602.458Z" fill="#330404"/>
<path d="M583.335 333.333L458.335 458.333L416.668 416.667" stroke="#330404" stroke-width="1.5" stroke-linecap="round" stroke-linejoin="round"/>
</svg>
