<svg width="1000" height="1000" viewBox="0 0 1000 1000" fill="none" xmlns="http://www.w3.org/2000/svg">
<path d="M500 12.375C223.75 12.375 0 236.25 0 512.375C0 733.333 143.25 920.708 341.875 986.75C366.875 991.458 376.042 976 376.042 962.708C376.042 950.833 375.625 919.375 375.417 877.708C236.333 907.875 207 810.625 207 810.625C184.25 752.917 151.375 737.5 151.375 737.5C106.083 706.5 154.875 707.125 154.875 707.125C205.083 710.625 231.458 758.625 231.458 758.625C276.042 835.083 348.5 813 377.083 800.208C381.583 767.875 394.458 745.833 408.75 733.333C297.708 720.833 181 677.833 181 486.25C181 431.667 200.375 387.083 232.458 352.083C226.833 339.458 209.958 288.625 236.833 219.75C236.833 219.75 278.708 206.333 374.333 271C414.333 259.875 456.833 254.375 499.333 254.125C541.833 254.375 584.333 259.875 624.333 271C719.333 206.333 761.208 219.75 761.208 219.75C788.083 288.625 771.208 339.458 766.208 352.083C798.083 387.083 817.458 431.667 817.458 486.25C817.458 678.333 700.583 720.625 589.333 732.917C606.833 747.917 623.083 778.583 623.083 825.417C623.083 892.333 622.458 946.083 622.458 962.333C622.458 975.458 631.208 991.083 656.833 986.083C856.875 920.5 1000 733 1000 512.375C1000 236.25 776.125 12.375 500 12.375Z" fill="#330404"/>
</svg>
