<svg width="1000" height="1000" viewBox="0 0 1000 1000" fill="none" xmlns="http://www.w3.org/2000/svg">
<path d="M500 20C234.9 20 20 234.9 20 500C20 765.1 234.9 980 500 980C765.1 980 980 765.1 980 500C980 234.9 765.1 20 500 20ZM382.5 698.95H285.3V386.15H382.5V698.95ZM333.3 347.75C302.6 347.75 282.75 326 282.75 299.1C282.75 271.65 303.2 250.55 334.55 250.55C365.9 250.55 385.1 271.65 385.7 299.1C385.7 326 365.9 347.75 333.3 347.75ZM737.5 698.95H640.3V525.6C640.3 485.25 626.2 457.85 591.05 457.85C564.2 457.85 548.25 476.4 541.2 494.25C538.6 500.6 537.95 509.6 537.95 518.55V698.9H440.7V485.9C440.7 446.85 439.45 414.2 438.15 386.1H522.6L527.05 429.55H529C541.8 409.15 573.15 379.05 625.6 379.05C689.55 379.05 737.5 421.9 737.5 514V698.95Z" fill="#330404"/>
</svg>
